<svg xmlns="http://www.w3.org/2000/svg" viewBox="0 0 226.24 164.12"><defs><style>.cls-1{fill:#fff;}</style></defs><title>hide</title><g id="Layer_2" data-name="Layer 2"><g id="Layer_1-2" data-name="Layer 1"><path class="cls-1" d="M84.79,22.26c-31.25,8.43-57,26.05-79.6,48.59-7,7-6.91,14.82.17,21.86a103.54,103.54,0,0,0,8.28,8c10.09,8,20.33,15.91,30.61,23.92,5.7-5.68,10.33-10.71,15.4-15.24,3.07-2.74,3.25-5.07,2-8.93C54.32,78.75,58.3,59.07,74.49,42.89c15.86-15.86,35.18-20,56.62-13.25,6.58,2,10.27.38,13.3-6.65A108.56,108.56,0,0,0,84.79,22.26ZM224.63,74.91c-12-14.34-26.8-25.65-43-35.48-5.35,5.37-10.38,10.7-15.74,15.66-2.4,2.22-2.45,4.06-1.26,6.87a49.69,49.69,0,0,1,3,28.41c-6.3,35.48-40.81,54.92-74.94,42.56-1.52-.55-3.9.16-5.45,1-2.27,1.29-4.15,3.28-7.24,5.83,18,5.29,34.51,6.68,51.11,3.63,37.53-6.89,67.56-27.09,93.05-54.44C226.7,86.29,227,77.71,224.63,74.91ZM186.15,2.78c-3-3.59-5.11-3.75-8.65-.19Q107.54,72.93,37.26,143A93.47,93.47,0,0,1,30,149l14.74,15.14L195.79,13.06C192.68,9.77,189.22,6.44,186.15,2.78ZM88.24,55.29c-9.8,9.25-12.8,20.9-10.49,34.18l43.49-43.19C108.73,43.74,97.53,46.52,88.24,55.29Zm59.4,17.37L104.06,116c10.9,4.55,26,.46,35-8.53S152.16,83.26,147.64,72.66Z"/><path d="M44.26,124.6c-10.28-8-20.52-15.88-30.62-23.93a104.84,104.84,0,0,1-8.28-8c-7.08-7-7.16-14.91-.16-21.87,22.65-22.54,48.35-40.16,79.6-48.58a108.45,108.45,0,0,1,59.62.73c-3,7-6.72,8.7-13.29,6.65C109.68,22.94,90.35,27,74.49,42.89,58.31,59.07,54.33,78.75,61.61,100.42c1.3,3.86,1.12,6.18-2,8.93C54.58,113.88,49.95,118.91,44.26,124.6Z"/><path d="M80,139.8c3.09-2.55,5-4.53,7.24-5.83,1.55-.88,3.93-1.59,5.45-1,34.13,12.36,68.64-7.08,74.93-42.56a49.68,49.68,0,0,0-3-28.41c-1.19-2.81-1.14-4.66,1.26-6.88,5.36-5,10.38-10.28,15.73-15.65,16.23,9.83,31,21.14,43,35.48,2.34,2.8,2.07,11.38-.44,14.08-25.49,27.35-55.53,47.55-93.06,54.44C114.54,146.48,98.06,145.1,80,139.8Z"/><path d="M195.79,13.06,44.72,164.12,30,149a94,94,0,0,0,7.28-6Q107.47,72.86,177.51,2.59c3.54-3.56,5.65-3.4,8.65.19S192.68,9.77,195.79,13.06Z"/><path d="M77.76,89.47c-2.31-13.29.69-24.93,10.48-34.18,9.29-8.77,20.5-11.55,33-9Z"/><path d="M104.07,116l43.58-43.34c4.51,10.59.43,25.84-8.54,34.81S115,120.56,104.07,116Z"/></g></g></svg>