<svg xmlns="http://www.w3.org/2000/svg" viewBox="0 0 226.23 127.1"><defs><style>.cls-1{fill:#fff;}.cls-2{fill:none;}</style></defs><title>show</title><g id="Layer_2" data-name="Layer 2"><g id="Layer_1-2" data-name="Layer 1"><path class="cls-1" d="M113.08,26.89A35.71,35.71,0,0,0,76.9,63c0,20.66,15.71,36.48,36.26,36.45,20.36,0,36.14-15.75,36.17-36C149.35,42.71,133.61,26.86,113.08,26.89Z"/><path class="cls-1" d="M127.38,55.75c-3.58-.14-7-3.72-6.86-7.21a7.05,7.05,0,0,1,14.1.44A7.31,7.31,0,0,1,127.38,55.75Z"/><path class="cls-1" d="M113.08,26.89A35.71,35.71,0,0,0,76.9,63c0,20.66,15.71,36.48,36.26,36.45,20.36,0,36.14-15.75,36.17-36C149.35,42.71,133.61,26.86,113.08,26.89Z"/><path class="cls-1" d="M127.38,55.75c-3.58-.14-7-3.72-6.86-7.21a7.05,7.05,0,0,1,14.1.44A7.31,7.31,0,0,1,127.38,55.75Z"/><path class="cls-1" d="M223.24,54.34a201.46,201.46,0,0,0-50.67-38.51q-59.18-31.5-118.44-.22A200.42,200.42,0,0,0,3.36,54c-4.47,4.64-4.48,13.7,0,18.33a200.46,200.46,0,0,0,38.24,31.15C63.38,117.12,86.71,126.16,113,127.1c8.54-1.25,17.23-1.86,25.58-3.87,34.16-8.19,61.67-27.51,85.67-52.4C227.38,67.55,226.64,57.88,223.24,54.34Z"/><path class="cls-1" d="M113.45,118.13a54.89,54.89,0,0,1-55.37-55c0-29.7,24.39-54.24,53.45-55,30.4-.84,56.86,24.37,56.63,54.86A54.94,54.94,0,0,1,113.45,118.13Z"/><path class="cls-1" d="M113.08,26.89A35.71,35.71,0,0,0,76.9,63c0,20.66,15.71,36.48,36.26,36.45,20.36,0,36.14-15.75,36.17-36C149.35,42.71,133.61,26.86,113.08,26.89Z"/><path class="cls-1" d="M127.38,55.75c-3.58-.14-7-3.72-6.86-7.21a7.05,7.05,0,0,1,14.1.44A7.31,7.31,0,0,1,127.38,55.75Z"/><path d="M223.24,54.34a201.46,201.46,0,0,0-50.67-38.51q-59.18-31.5-118.44-.22A200.42,200.42,0,0,0,3.36,54c-4.47,4.64-4.48,13.7,0,18.33a200.46,200.46,0,0,0,38.24,31.15C63.38,117.12,86.71,126.16,113,127.1c8.54-1.25,17.23-1.86,25.58-3.87,34.16-8.19,61.67-27.51,85.67-52.4C227.38,67.55,226.64,57.88,223.24,54.34ZM113.45,118.13a54.89,54.89,0,0,1-55.37-55c0-29.7,24.39-54.24,53.45-55,30.4-.84,56.86,24.37,56.63,54.86A54.94,54.94,0,0,1,113.45,118.13Z"/><path class="cls-2" d="M111.53,8.07c-29.06.8-53.48,25.34-53.45,55a55,55,0,1,0,110.08-.18C168.39,32.44,141.93,7.23,111.53,8.07Zm1.63,91.33C92.61,99.43,76.88,83.61,76.9,63a35.71,35.71,0,0,1,36.18-36.06c20.53,0,36.27,15.82,36.25,36.48C149.3,83.65,133.52,99.38,113.16,99.4Z"/><path d="M113.08,26.89A35.71,35.71,0,0,0,76.9,63c0,20.66,15.71,36.48,36.26,36.45,20.36,0,36.14-15.75,36.17-36C149.35,42.71,133.61,26.86,113.08,26.89Zm14.3,28.86c-3.58-.14-7-3.72-6.86-7.21a7.05,7.05,0,0,1,14.1.44A7.31,7.31,0,0,1,127.38,55.75Z"/><path class="cls-2" d="M134.62,49a7.31,7.31,0,0,1-7.24,6.77c-3.58-.14-7-3.72-6.86-7.21a7.05,7.05,0,0,1,14.1.44Z"/></g></g></svg>